<svg version="1.1" id="Layer_1" xmlns="http://www.w3.org/2000/svg" xmlns:xlink="http://www.w3.org/1999/xlink" x="0px" y="0px"
	 width="100%" viewBox="0 0 1593 2048" enable-background="new 0 0 1593 2048" xml:space="preserve">
<path fill="#FFFE00" opacity="1.000000" stroke="none" 
	d="
M705.000000,2049.000000 
	C691.312439,2049.000000 677.624878,2049.000000 663.799194,2048.676514 
	C663.171204,2047.923462 662.733704,2047.206177 662.183899,2047.105957 
	C647.583008,2044.448730 633.980652,2039.103516 621.730469,2030.846191 
	C614.314575,2025.847412 606.903381,2020.436157 600.833069,2013.952759 
	C593.818298,2006.460693 586.964355,1998.550537 582.897095,1988.740112 
	C580.324158,1982.534058 575.844421,1976.859131 574.485474,1970.464478 
	C571.820312,1957.922729 569.246155,1945.047119 569.223877,1932.305298 
	C568.897888,1745.874146 568.999878,1559.442505 568.999817,1373.010864 
	C568.999817,1371.081421 568.999756,1369.151855 568.999756,1367.000122 
	C566.412048,1367.000122 564.433350,1367.000122 562.454590,1367.000122 
	C411.010162,1367.000122 259.565704,1367.008301 108.121284,1366.956543 
	C104.037720,1366.955078 99.874603,1366.698120 95.884407,1365.889893 
	C75.863808,1361.833984 57.587852,1353.637817 41.642437,1340.917236 
	C31.978197,1333.207275 24.051439,1323.574097 17.644875,1313.002075 
	C10.776039,1301.667236 5.784739,1289.423096 2.914425,1276.390991 
	C2.787476,1275.814819 1.660926,1275.458618 0.999996,1275.000000 
	C1.000000,1260.312378 1.000000,1245.624878 1.321335,1230.798828 
	C2.073745,1230.172363 2.821906,1229.724243 2.889211,1229.190308 
	C4.351999,1217.585449 9.127598,1206.981445 14.727234,1197.130249 
	C22.363228,1183.696411 31.497280,1171.092285 40.313976,1158.357300 
	C50.109947,1144.207886 60.353367,1130.369019 70.244461,1116.284302 
	C76.771935,1106.989258 82.921570,1097.429321 89.425995,1088.117676 
	C95.158730,1079.910645 101.207184,1071.924683 107.011047,1063.766357 
	C115.101852,1052.393433 123.073547,1040.935669 131.135040,1029.541748 
	C140.330841,1016.544678 149.717361,1003.679626 158.750488,990.570862 
	C169.118851,975.524231 179.001495,960.141541 189.446732,945.149780 
	C198.996841,931.442749 209.162140,918.165344 218.778854,904.503296 
	C225.550583,894.882996 231.718887,884.839600 238.417999,875.166138 
	C243.390839,867.985291 248.943283,861.206970 253.951660,854.049377 
	C261.522522,843.229614 268.688263,832.125244 276.311432,821.343567 
	C285.955658,807.703369 296.012939,794.355164 305.651001,780.710754 
	C312.742493,770.671509 319.293335,760.250916 326.360291,750.193665 
	C337.153503,734.833191 348.266724,719.697754 359.079803,704.351074 
	C364.634521,696.467468 369.716888,688.252197 375.222565,680.332764 
	C382.468628,669.909973 389.994659,659.682007 397.261688,649.273499 
	C403.035919,641.003052 408.427734,632.462341 414.305573,624.268494 
	C421.343262,614.457825 428.893005,605.013245 435.885895,595.171997 
	C440.841461,588.197937 445.058014,580.702209 449.928589,573.663635 
	C459.168274,560.311157 468.613068,547.100098 478.024017,533.866821 
	C487.513306,520.523315 497.187927,507.309875 506.558136,493.883698 
	C518.169434,477.246277 529.549072,460.447296 541.032532,443.720642 
	C548.531189,432.798157 555.988281,421.846710 563.551880,410.969391 
	C571.394104,399.691406 579.269958,388.435333 587.265808,377.266113 
	C594.442688,367.240845 601.941650,357.444427 609.036499,347.362610 
	C614.428528,339.700562 619.229614,331.623077 624.610901,323.952972 
	C635.315002,308.696045 646.260742,293.608826 657.061768,278.419678 
	C664.273682,268.277771 671.376953,258.058594 678.587219,247.915527 
	C684.599915,239.456909 690.845703,231.160217 696.711487,222.602112 
	C701.605957,215.461029 705.864929,207.881378 710.819458,200.785065 
	C720.745789,186.567764 731.063477,172.623947 741.011353,158.421295 
	C748.044495,148.380020 754.542847,137.962723 761.624329,127.956963 
	C772.044434,113.233833 782.862671,98.792984 793.338867,84.108856 
	C801.774902,72.284294 810.102173,60.376053 818.208496,48.323875 
	C826.425354,36.107410 837.240051,26.441080 849.305542,18.574850 
	C861.039307,10.924881 874.181152,5.708764 888.106934,2.927567 
	C888.837097,2.781732 889.373413,1.664811 890.000000,0.999993 
	C903.687561,1.000000 917.375122,1.000000 931.200806,1.323443 
	C931.828796,2.076499 932.262329,2.782345 932.816833,2.895539 
	C949.045898,6.208116 964.213623,12.035148 977.514343,22.085625 
	C983.107971,26.312393 989.114624,30.326380 993.637634,35.557545 
	C1000.364685,43.337650 1007.759460,50.740131 1011.528992,60.835049 
	C1014.042603,67.566544 1019.247681,73.534744 1020.670166,80.380272 
	C1023.412048,93.575020 1025.760742,107.146835 1025.783936,120.566589 
	C1026.103760,306.006042 1026.000122,491.446228 1026.000122,676.886230 
	C1026.000122,678.825500 1026.000122,680.764832 1026.000122,682.999756 
	C1028.499390,682.999756 1030.471191,682.999695 1032.442993,682.999695 
	C1183.893921,682.999634 1335.344971,682.991455 1486.795898,683.043091 
	C1490.881592,683.044495 1495.046997,683.297485 1499.038940,684.106018 
	C1519.080688,688.165222 1537.361450,696.415344 1553.350708,709.087646 
	C1563.037476,716.764954 1570.949829,726.421814 1577.354736,736.996277 
	C1584.221313,748.333191 1589.215454,760.576233 1592.085693,773.608826 
	C1592.212646,774.185120 1593.339111,774.541321 1594.000000,775.000000 
	C1594.000000,789.687561 1594.000000,804.375122 1593.683350,819.202393 
	C1592.932373,819.825378 1592.184082,820.265076 1592.109985,820.798462 
	C1590.438354,832.848877 1584.885498,843.533325 1579.767334,854.251343 
	C1576.731445,860.608948 1572.001221,866.162781 1567.986450,872.046265 
	C1563.257690,878.976013 1558.569824,885.936401 1553.699585,892.766174 
	C1546.692627,902.592957 1539.458984,912.258484 1532.470825,922.098267 
	C1527.319092,929.351868 1522.502075,936.843018 1517.361450,944.104736 
	C1510.372681,953.977478 1503.093994,963.646301 1496.173950,973.566040 
	C1490.963013,981.035950 1486.269409,988.866211 1481.076782,996.349548 
	C1473.820679,1006.806580 1466.262939,1017.053711 1458.930420,1027.458374 
	C1452.565552,1036.489746 1446.446289,1045.695557 1440.012817,1054.676880 
	C1433.518311,1063.743286 1426.550171,1072.475342 1420.202759,1081.640137 
	C1414.894043,1089.304932 1410.467041,1097.581055 1405.143555,1105.234619 
	C1395.240967,1119.471313 1384.841675,1133.361816 1374.887085,1147.563232 
	C1364.511230,1162.365723 1354.460449,1177.395508 1344.184448,1192.268433 
	C1335.730835,1204.503540 1327.247681,1216.720337 1318.610474,1228.825928 
	C1308.908203,1242.424072 1298.892578,1255.799561 1289.251343,1269.440063 
	C1282.175293,1279.451172 1275.579834,1289.800537 1268.594116,1299.877075 
	C1260.593506,1311.417236 1252.388794,1322.815674 1244.291260,1334.288696 
	C1239.173706,1341.539551 1234.038086,1348.778564 1229.003418,1356.086914 
	C1221.474365,1367.015869 1214.140381,1378.080566 1206.516724,1388.942505 
	C1196.742188,1402.868652 1186.682129,1416.594238 1176.899780,1430.515015 
	C1170.368408,1439.809570 1164.198853,1449.357910 1157.695190,1458.672485 
	C1152.476685,1466.146606 1146.878784,1473.355835 1141.666382,1480.833740 
	C1134.429932,1491.215576 1127.466553,1501.787720 1120.250122,1512.183716 
	C1115.902588,1518.446655 1111.229248,1524.482544 1106.819580,1530.703491 
	C1096.441528,1545.344238 1086.067749,1559.988770 1075.822266,1574.722168 
	C1069.603394,1583.664917 1063.794434,1592.894653 1057.497437,1601.780151 
	C1050.104858,1612.211670 1042.261108,1622.323120 1034.846802,1632.739868 
	C1030.084717,1639.430054 1025.884033,1646.518066 1021.183105,1653.254395 
	C1013.876343,1663.724854 1006.251099,1673.973267 998.955566,1684.451294 
	C989.336243,1698.266968 980.011597,1712.288086 970.363770,1726.083496 
	C960.536072,1740.135986 950.406494,1753.977051 940.528992,1767.995239 
	C932.991516,1778.692139 925.716492,1789.573975 918.185913,1800.276001 
	C911.468628,1809.822388 904.463318,1819.166626 897.770996,1828.730103 
	C892.966858,1835.595581 888.604492,1842.770142 883.805908,1849.639648 
	C874.251343,1863.316895 864.454529,1876.825073 854.905823,1890.506226 
	C847.605713,1900.965576 840.698914,1911.701416 833.319519,1922.103149 
	C822.887878,1936.807373 812.090515,1951.251831 801.621887,1965.930298 
	C793.200134,1977.738770 784.887146,1989.630981 776.796082,2001.667725 
	C768.581360,2013.888184 757.741211,2023.511841 745.704956,2031.433594 
	C734.126770,2039.053711 721.042908,2043.978882 707.393860,2047.061646 
	C706.495789,2047.264404 705.793457,2048.333984 705.000000,2049.000000 
z"/>
<path fill="#000000" opacity="1.000000" stroke="none" 
	d="
M705.468689,2049.000000 
	C705.793457,2048.333984 706.495789,2047.264404 707.393860,2047.061646 
	C721.042908,2043.978882 734.126770,2039.053711 745.704956,2031.433594 
	C757.741211,2023.511841 768.581360,2013.888184 776.796082,2001.667725 
	C784.887146,1989.630981 793.200134,1977.738770 801.621887,1965.930298 
	C812.090515,1951.251831 822.887878,1936.807373 833.319519,1922.103149 
	C840.698914,1911.701416 847.605713,1900.965576 854.905823,1890.506226 
	C864.454529,1876.825073 874.251343,1863.316895 883.805908,1849.639648 
	C888.604492,1842.770142 892.966858,1835.595581 897.770996,1828.730103 
	C904.463318,1819.166626 911.468628,1809.822388 918.185913,1800.276001 
	C925.716492,1789.573975 932.991516,1778.692139 940.528992,1767.995239 
	C950.406494,1753.977051 960.536072,1740.135986 970.363770,1726.083496 
	C980.011597,1712.288086 989.336243,1698.266968 998.955566,1684.451294 
	C1006.251099,1673.973267 1013.876343,1663.724854 1021.183105,1653.254395 
	C1025.884033,1646.518066 1030.084717,1639.430054 1034.846802,1632.739868 
	C1042.261108,1622.323120 1050.104858,1612.211670 1057.497437,1601.780151 
	C1063.794434,1592.894653 1069.603394,1583.664917 1075.822266,1574.722168 
	C1086.067749,1559.988770 1096.441528,1545.344238 1106.819580,1530.703491 
	C1111.229248,1524.482544 1115.902588,1518.446655 1120.250122,1512.183716 
	C1127.466553,1501.787720 1134.429932,1491.215576 1141.666382,1480.833740 
	C1146.878784,1473.355835 1152.476685,1466.146606 1157.695190,1458.672485 
	C1164.198853,1449.357910 1170.368408,1439.809570 1176.899780,1430.515015 
	C1186.682129,1416.594238 1196.742188,1402.868652 1206.516724,1388.942505 
	C1214.140381,1378.080566 1221.474365,1367.015869 1229.003418,1356.086914 
	C1234.038086,1348.778564 1239.173706,1341.539551 1244.291260,1334.288696 
	C1252.388794,1322.815674 1260.593506,1311.417236 1268.594116,1299.877075 
	C1275.579834,1289.800537 1282.175293,1279.451172 1289.251343,1269.440063 
	C1298.892578,1255.799561 1308.908203,1242.424072 1318.610474,1228.825928 
	C1327.247681,1216.720337 1335.730835,1204.503540 1344.184448,1192.268433 
	C1354.460449,1177.395508 1364.511230,1162.365723 1374.887085,1147.563232 
	C1384.841675,1133.361816 1395.240967,1119.471313 1405.143555,1105.234619 
	C1410.467041,1097.581055 1414.894043,1089.304932 1420.202759,1081.640137 
	C1426.550171,1072.475342 1433.518311,1063.743286 1440.012817,1054.676880 
	C1446.446289,1045.695557 1452.565552,1036.489746 1458.930420,1027.458374 
	C1466.262939,1017.053711 1473.820679,1006.806580 1481.076782,996.349548 
	C1486.269409,988.866211 1490.963013,981.035950 1496.173950,973.566040 
	C1503.093994,963.646301 1510.372681,953.977478 1517.361450,944.104736 
	C1522.502075,936.843018 1527.319092,929.351868 1532.470825,922.098267 
	C1539.458984,912.258484 1546.692627,902.592957 1553.699585,892.766174 
	C1558.569824,885.936401 1563.257690,878.976013 1567.986450,872.046265 
	C1572.001221,866.162781 1576.731445,860.608948 1579.767334,854.251343 
	C1584.885498,843.533325 1590.438354,832.848877 1592.109985,820.798462 
	C1592.184082,820.265076 1592.932373,819.825378 1593.683350,819.671021 
	C1594.000000,1229.582275 1594.000000,1639.164551 1594.000000,2049.000000 
	C1297.979126,2049.000000 1001.958252,2049.000000 705.468689,2049.000000 
z"/>
<path fill="#000000" opacity="1.000000" stroke="none" 
	d="
M889.531372,0.999993 
	C889.373413,1.664811 888.837097,2.781732 888.106934,2.927567 
	C874.181152,5.708764 861.039307,10.924881 849.305542,18.574850 
	C837.240051,26.441080 826.425354,36.107410 818.208496,48.323875 
	C810.102173,60.376053 801.774902,72.284294 793.338867,84.108856 
	C782.862671,98.792984 772.044434,113.233833 761.624329,127.956963 
	C754.542847,137.962723 748.044495,148.380020 741.011353,158.421295 
	C731.063477,172.623947 720.745789,186.567764 710.819458,200.785065 
	C705.864929,207.881378 701.605957,215.461029 696.711487,222.602112 
	C690.845703,231.160217 684.599915,239.456909 678.587219,247.915527 
	C671.376953,258.058594 664.273682,268.277771 657.061768,278.419678 
	C646.260742,293.608826 635.315002,308.696045 624.610901,323.952972 
	C619.229614,331.623077 614.428528,339.700562 609.036499,347.362610 
	C601.941650,357.444427 594.442688,367.240845 587.265808,377.266113 
	C579.269958,388.435333 571.394104,399.691406 563.551880,410.969391 
	C555.988281,421.846710 548.531189,432.798157 541.032532,443.720642 
	C529.549072,460.447296 518.169434,477.246277 506.558136,493.883698 
	C497.187927,507.309875 487.513306,520.523315 478.024017,533.866821 
	C468.613068,547.100098 459.168274,560.311157 449.928589,573.663635 
	C445.058014,580.702209 440.841461,588.197937 435.885895,595.171997 
	C428.893005,605.013245 421.343262,614.457825 414.305573,624.268494 
	C408.427734,632.462341 403.035919,641.003052 397.261688,649.273499 
	C389.994659,659.682007 382.468628,669.909973 375.222565,680.332764 
	C369.716888,688.252197 364.634521,696.467468 359.079803,704.351074 
	C348.266724,719.697754 337.153503,734.833191 326.360291,750.193665 
	C319.293335,760.250916 312.742493,770.671509 305.651001,780.710754 
	C296.012939,794.355164 285.955658,807.703369 276.311432,821.343567 
	C268.688263,832.125244 261.522522,843.229614 253.951660,854.049377 
	C248.943283,861.206970 243.390839,867.985291 238.417999,875.166138 
	C231.718887,884.839600 225.550583,894.882996 218.778854,904.503296 
	C209.162140,918.165344 198.996841,931.442749 189.446732,945.149780 
	C179.001495,960.141541 169.118851,975.524231 158.750488,990.570862 
	C149.717361,1003.679626 140.330841,1016.544678 131.135040,1029.541748 
	C123.073547,1040.935669 115.101852,1052.393433 107.011047,1063.766357 
	C101.207184,1071.924683 95.158730,1079.910645 89.425995,1088.117676 
	C82.921570,1097.429321 76.771935,1106.989258 70.244461,1116.284302 
	C60.353367,1130.369019 50.109947,1144.207886 40.313976,1158.357300 
	C31.497280,1171.092285 22.363228,1183.696411 14.727234,1197.130249 
	C9.127598,1206.981445 4.351999,1217.585449 2.889211,1229.190308 
	C2.821906,1229.724243 2.073745,1230.172363 1.321335,1230.330200 
	C1.000000,820.417725 1.000000,410.835388 1.000000,1.000000 
	C297.020844,1.000000 593.041748,1.000000 889.531372,0.999993 
z"/>
<path fill="#000000" opacity="1.000000" stroke="none" 
	d="
M1594.000000,774.531372 
	C1593.339111,774.541321 1592.212646,774.185120 1592.085693,773.608826 
	C1589.215454,760.576233 1584.221313,748.333191 1577.354736,736.996277 
	C1570.949829,726.421814 1563.037476,716.764954 1553.350708,709.087646 
	C1537.361450,696.415344 1519.080688,688.165222 1499.038940,684.106018 
	C1495.046997,683.297485 1490.881592,683.044495 1486.795898,683.043091 
	C1335.344971,682.991455 1183.893921,682.999634 1032.442993,682.999695 
	C1030.471191,682.999695 1028.499390,682.999756 1026.000122,682.999756 
	C1026.000122,680.764832 1026.000122,678.825500 1026.000122,676.886230 
	C1026.000122,491.446228 1026.103760,306.006042 1025.783936,120.566589 
	C1025.760742,107.146835 1023.412048,93.575020 1020.670166,80.380272 
	C1019.247681,73.534744 1014.042603,67.566544 1011.528992,60.835049 
	C1007.759460,50.740131 1000.364685,43.337650 993.637634,35.557545 
	C989.114624,30.326380 983.107971,26.312393 977.514343,22.085625 
	C964.213623,12.035148 949.045898,6.208116 932.816833,2.895539 
	C932.262329,2.782345 931.828796,2.076499 931.669434,1.323443 
	C1152.599487,1.000000 1373.198853,1.000000 1594.000000,1.000000 
	C1594.000000,258.687531 1594.000000,516.375122 1594.000000,774.531372 
z"/>
<path fill="#000000" opacity="1.000000" stroke="none" 
	d="
M0.999996,1275.468628 
	C1.660926,1275.458618 2.787476,1275.814819 2.914425,1276.390991 
	C5.784739,1289.423096 10.776039,1301.667236 17.644875,1313.002075 
	C24.051439,1323.574097 31.978197,1333.207275 41.642437,1340.917236 
	C57.587852,1353.637817 75.863808,1361.833984 95.884407,1365.889893 
	C99.874603,1366.698120 104.037720,1366.955078 108.121284,1366.956543 
	C259.565704,1367.008301 411.010162,1367.000122 562.454590,1367.000122 
	C564.433350,1367.000122 566.412048,1367.000122 568.999756,1367.000122 
	C568.999756,1369.151855 568.999817,1371.081421 568.999817,1373.010864 
	C568.999878,1559.442505 568.897888,1745.874146 569.223877,1932.305298 
	C569.246155,1945.047119 571.820312,1957.922729 574.485474,1970.464478 
	C575.844421,1976.859131 580.324158,1982.534058 582.897095,1988.740112 
	C586.964355,1998.550537 593.818298,2006.460693 600.833069,2013.952759 
	C606.903381,2020.436157 614.314575,2025.847412 621.730469,2030.846191 
	C633.980652,2039.103516 647.583008,2044.448730 662.183899,2047.105957 
	C662.733704,2047.206177 663.171204,2047.923462 663.330566,2048.676514 
	C442.400543,2049.000000 221.801086,2049.000000 1.000000,2049.000000 
	C1.000000,1791.312500 1.000000,1533.624878 0.999996,1275.468628 
z"/>
</svg>